<svg width="19" height="21" viewBox="0 0 19 21" fill="none" xmlns="http://www.w3.org/2000/svg">
<path opacity="0.9" d="M12.8625 12.4688C11.6854 12.4688 11.1193 13.125 9.1875 13.125C7.25566 13.125 6.69375 12.4688 5.5125 12.4688C2.46914 12.4688 0 14.9379 0 17.9813V19.0313C0 20.1182 0.881836 21 1.96875 21H16.4062C17.4932 21 18.375 20.1182 18.375 19.0313V17.9813C18.375 14.9379 15.9059 12.4688 12.8625 12.4688ZM16.4062 17.9813C16.4062 18.5612 15.9361 19.0313 15.3562 19.0313H3.01875C2.43885 19.0313 1.96875 18.5612 1.96875 17.9813C1.96875 16.0289 3.56016 14.4375 5.5125 14.4375C6.11133 14.4375 7.0834 15.0938 9.1875 15.0938C11.308 15.0938 12.2596 14.4375 12.8625 14.4375C14.8148 14.4375 16.4062 16.0289 16.4062 17.9813ZM9.1875 11.8125C12.4482 11.8125 15.0937 9.16703 15.0937 5.90628C15.0937 2.64554 12.4482 3.43323e-05 9.1875 3.43323e-05C5.92676 3.43323e-05 3.28125 2.64554 3.28125 5.90628C3.28125 9.16703 5.92676 11.8125 9.1875 11.8125ZM9.1875 1.96878C11.3572 1.96878 13.125 3.73656 13.125 5.90628C13.125 8.07601 11.3572 9.84379 9.1875 9.84379C7.01777 9.84379 5.25 8.07601 5.25 5.90628C5.25 3.73656 7.01777 1.96878 9.1875 1.96878Z" fill="white"/>
</svg>
