<svg width="16" height="14" viewBox="0 0 16 14" fill="none" xmlns="http://www.w3.org/2000/svg">
<path d="M14.4408 8.23919L15.7334 2.55169C15.8267 2.14104 15.5146 1.75 15.0935 1.75H4.35334L4.10271 0.524727C4.04026 0.219324 3.77152 0 3.45978 0H0.65625C0.293809 0 0 0.293809 0 0.65625V1.09375C0 1.45619 0.293809 1.75 0.65625 1.75H2.56711L4.48796 11.1408C4.02842 11.4051 3.71875 11.9006 3.71875 12.4688C3.71875 13.3144 4.40431 14 5.25 14C6.09569 14 6.78125 13.3144 6.78125 12.4688C6.78125 12.0402 6.60496 11.6529 6.32122 11.375H12.0538C11.77 11.6529 11.5938 12.0402 11.5938 12.4688C11.5938 13.3144 12.2793 14 13.125 14C13.9707 14 14.6562 13.3144 14.6562 12.4688C14.6562 11.8625 14.3038 11.3386 13.7928 11.0905L13.9436 10.4267C14.0369 10.016 13.7248 9.625 13.3037 9.625H5.96414L5.78517 8.75H13.8009C14.1073 8.75 14.3729 8.53798 14.4408 8.23919Z" fill="#B4BDC1"/>
</svg>
