<?xml version="1.0" encoding="utf-8"?><svg xmlns="http://www.w3.org/2000/svg" xmlns:xlink="http://www.w3.org/1999/xlink"><symbol viewBox="0 0 7.11 7.11" id="checkmark" xmlns="http://www.w3.org/2000/svg"><path d="M1.444 5.889l2.51 2.666 4.601-7.11"/></symbol><symbol viewBox="0 0 14 14" id="cross" xmlns="http://www.w3.org/2000/svg"><path opacity=".5" d="M1 1l14 14m0-14L1 15"/></symbol><symbol viewBox="0 0 10 5" id="dropdown" xmlns="http://www.w3.org/2000/svg"><path d="M5.022 5L0 0h10L5.022 5z"/></symbol><symbol viewBox="0 0 10 5" id="dropdown-up" xmlns="http://www.w3.org/2000/svg"><path d="M4.978 0L10 5H0l4.978-5z"/></symbol><symbol viewBox="0 0 18.37 20.02" id="ellipse" xmlns="http://www.w3.org/2000/svg"><path d="M1.029 6.712a9.28 9.28 0 11.253 8.098M.544 5.731L.99 6.877l1.146-.447"/></symbol><symbol viewBox="0 0 18.38 21" id="man" xmlns="http://www.w3.org/2000/svg"><path opacity=".9" d="M12.863 12.469c-1.178 0-1.744.656-3.675.656-1.932 0-2.494-.656-3.676-.656A5.514 5.514 0 000 17.98v1.05A1.97 1.97 0 001.969 21h14.437a1.97 1.97 0 001.969-1.969v-1.05a5.514 5.514 0 00-5.512-5.512zm3.543 5.512c0 .58-.47 1.05-1.05 1.05H3.02c-.58 0-1.05-.47-1.05-1.05a3.55 3.55 0 013.543-3.544c.6 0 1.571.657 3.676.657 2.12 0 3.072-.656 3.675-.656a3.55 3.55 0 013.543 3.543zm-7.218-6.169a5.908 5.908 0 005.906-5.906A5.908 5.908 0 009.188 0 5.908 5.908 0 003.28 5.906a5.908 5.908 0 005.906 5.907zm0-9.843a3.944 3.944 0 013.937 3.937 3.944 3.944 0 01-3.938 3.938A3.944 3.944 0 015.25 5.906 3.944 3.944 0 019.188 1.97z"/></symbol><symbol viewBox="0 0 36 36" id="okay" xmlns="http://www.w3.org/2000/svg"><path d="M18 0C8.06 0 0 8.059 0 18s8.06 18 18 18c9.942 0 18-8.059 18-18S27.941 0 18 0zm-3.302 27.246l-7.926-7.925 2.642-2.642 5.284 5.284 11.888-11.888 2.642 2.641-14.53 14.53z"/></symbol><symbol viewBox="0 0 4.64 10.44" id="time" xmlns="http://www.w3.org/2000/svg"><path d="M6.08.96v8.12L1.44 11.4"/></symbol><symbol viewBox="0 0 6 3" id="triangle" xmlns="http://www.w3.org/2000/svg"><path d="M1 1l3 3 3-3"/></symbol></svg>