<?xml version="1.0" encoding="utf-8"?><svg xmlns="http://www.w3.org/2000/svg" xmlns:xlink="http://www.w3.org/1999/xlink"><symbol viewBox="0 0 6 3" id="Vectorddown" xmlns="http://www.w3.org/2000/svg"><path d="M1 1l3 3 3-3"/></symbol><symbol viewBox="0 0 10 5" id="arrowbottom" xmlns="http://www.w3.org/2000/svg"><path d="M5.022 5L0 0h10L5.022 5z"/></symbol><symbol viewBox="0 0 5.5 11" id="arrowleft" xmlns="http://www.w3.org/2000/svg"><path d="M6.5 1L1 6.5 6.5 12"/></symbol><symbol viewBox="0 0 15.78 14.09" id="basket" xmlns="http://www.w3.org/2000/svg"><path d="M14.44 8.24l1.293-5.688a.656.656 0 00-.64-.802H4.354L4.103.525A.656.656 0 003.46 0H.656A.656.656 0 000 .656v.438c0 .362.294.656.656.656h1.911l1.921 9.39a1.53 1.53 0 101.833.235h5.733a1.531 1.531 0 101.739-.284l.15-.664a.656.656 0 00-.64-.802H5.965l-.179-.875h8.016a.656.656 0 00.64-.51z"/></symbol><symbol viewBox="0 0 8.5 8" id="checkbox" xmlns="http://www.w3.org/2000/svg"><path d="M1 6l3 3 5.5-8"/></symbol><symbol viewBox="0 0 7.11 7.11" id="checkmark" xmlns="http://www.w3.org/2000/svg"><path d="M1.444 5.889l2.51 2.666 4.601-7.11"/></symbol><symbol viewBox="0 0 14 14" id="cross" xmlns="http://www.w3.org/2000/svg"><path opacity=".5" d="M1 1l14 14m0-14L1 15"/></symbol><symbol viewBox="0 0 14 14" id="done" xmlns="http://www.w3.org/2000/svg"><path d="M7 .5a7 7 0 100 14 7 7 0 000-14zM5.716 11.096L2.634 8.014 3.66 6.986l2.055 2.055 4.623-4.623 1.027 1.027-5.65 5.65z"/></symbol><symbol viewBox="0 0 10 5" id="dropdown" xmlns="http://www.w3.org/2000/svg"><path d="M5.022 5L0 0h10L5.022 5z"/></symbol><symbol viewBox="0 0 10 5" id="dropdown-up" xmlns="http://www.w3.org/2000/svg"><path d="M4.978 0L10 5H0l4.978-5z"/></symbol><symbol viewBox="0 0 18.37 20.02" id="ellipse" xmlns="http://www.w3.org/2000/svg"><path d="M1.029 6.712a9.28 9.28 0 11.253 8.098M.544 5.731L.99 6.877l1.146-.447"/></symbol><symbol viewBox="0 0 18.38 21" id="man" xmlns="http://www.w3.org/2000/svg"><path opacity=".9" d="M12.863 12.469c-1.178 0-1.744.656-3.675.656-1.932 0-2.494-.656-3.676-.656A5.514 5.514 0 000 17.98v1.05A1.97 1.97 0 001.969 21h14.437a1.97 1.97 0 001.969-1.969v-1.05a5.514 5.514 0 00-5.512-5.512zm3.543 5.512c0 .58-.47 1.05-1.05 1.05H3.02c-.58 0-1.05-.47-1.05-1.05a3.55 3.55 0 013.543-3.544c.6 0 1.571.657 3.676.657 2.12 0 3.072-.656 3.675-.656a3.55 3.55 0 013.543 3.543zm-7.218-6.169a5.908 5.908 0 005.906-5.906A5.908 5.908 0 009.188 0 5.908 5.908 0 003.28 5.906a5.908 5.908 0 005.906 5.907zm0-9.843a3.944 3.944 0 013.937 3.937 3.944 3.944 0 01-3.938 3.938A3.944 3.944 0 015.25 5.906 3.944 3.944 0 019.188 1.97z"/></symbol><symbol viewBox="0 0 38.95 27.87" id="moderation-vector" xmlns="http://www.w3.org/2000/svg"><path d="M36.964 1.234l-21.28 23.94-12.82-10.256a1.385 1.385 0 00-1.73 2.163l13.847 11.077a1.382 1.382 0 001.9-.162L39.037 3.073a1.383 1.383 0 00-.115-1.954 1.384 1.384 0 00-1.957.115z"/></symbol><symbol viewBox="0 0 36 36" id="okay" xmlns="http://www.w3.org/2000/svg"><path d="M18 0C8.06 0 0 8.059 0 18s8.06 18 18 18c9.942 0 18-8.059 18-18S27.941 0 18 0zm-3.302 27.246l-7.926-7.925 2.642-2.642 5.284 5.284 11.888-11.888 2.642 2.641-14.53 14.53z"/></symbol><symbol class="osvg-inline--fa ofa-search ofa-w-16" viewBox="0 0 512 512" id="search-solid" xmlns="http://www.w3.org/2000/svg"><path d="M505 442.7L405.3 343c-4.5-4.5-10.6-7-17-7H372c27.6-35.3 44-79.7 44-128C416 93.1 322.9 0 208 0S0 93.1 0 208s93.1 208 208 208c48.3 0 92.7-16.4 128-44v16.3c0 6.4 2.5 12.5 7 17l99.7 99.7c9.4 9.4 24.6 9.4 33.9 0l28.3-28.3c9.4-9.4 9.4-24.6.1-34zM208 336c-70.7 0-128-57.2-128-128 0-70.7 57.2-128 128-128 70.7 0 128 57.2 128 128 0 70.7-57.2 128-128 128z"/></symbol><symbol viewBox="0 0 4.64 10.44" id="time" xmlns="http://www.w3.org/2000/svg"><path d="M6.08.96v8.12L1.44 11.4"/></symbol><symbol viewBox="0 0 6 3" id="triangle" xmlns="http://www.w3.org/2000/svg"><path d="M1 1l3 3 3-3"/></symbol></svg>